<?xml version="1.0" standalone="no"?>
<!DOCTYPE svg PUBLIC "-//W3C//DTD SVG 20010904//EN"
 "http://www.w3.org/TR/2001/REC-SVG-20010904/DTD/svg10.dtd">
<svg version="1.0" xmlns="http://www.w3.org/2000/svg"
 width="700.000000pt" height="700.000000pt" viewBox="0 0 700.000000 700.000000"
 preserveAspectRatio="xMidYMid meet">
<metadata>
Created by potrace 1.14, written by Peter Selinger 2001-2017
</metadata>
<g transform="translate(0.000000,700.000000) scale(0.100000,-0.100000)"
fill="#000000" stroke="none">
<path d="M1711 6959 c-132 -23 -254 -93 -362 -207 -64 -67 -90 -104 -130 -187
-48 -98 -89 -243 -89 -317 0 -26 -3 -28 -37 -28 -21 0 -66 -7 -101 -15 -286
-68 -515 -295 -582 -578 -20 -85 -20 -108 -18 -2524 l3 -2438 22 -77 c65 -226
207 -401 408 -499 191 -93 -81 -84 2675 -84 l2435 0 85 23 c170 47 337 158
434 290 50 68 104 181 129 270 l22 77 3 2438 c2 2416 2 2439 -18 2524 -20 87
-68 192 -120 268 -84 122 -247 242 -394 290 l-83 27 -6 77 c-14 185 -121 397
-260 515 -129 109 -258 159 -412 160 -115 0 -184 -17 -288 -71 -86 -45 -193
-144 -253 -234 l-46 -69 -40 62 c-80 123 -217 235 -344 279 -30 11 -91 25
-135 31 -227 32 -474 -98 -616 -324 l-30 -47 -48 70 c-138 202 -369 323 -580
304 -79 -7 -188 -41 -255 -79 -91 -51 -222 -183 -265 -267 -9 -16 -17 -29 -19
-29 -2 0 -19 26 -39 58 -78 127 -245 255 -386 296 -69 20 -191 28 -260 15z
m194 -393 c100 -46 176 -163 191 -291 l7 -55 -289 2 -289 3 3 40 c2 21 13 64
25 95 70 190 211 272 352 206z m1170 0 c90 -41 162 -146 185 -266 5 -29 10
-59 10 -66 0 -12 -52 -14 -290 -14 -330 0 -302 -10 -275 93 31 119 95 210 177
251 66 33 126 34 193 2z m1174 0 c88 -46 168 -174 178 -286 l6 -60 -287 0
-286 0 0 28 c0 36 26 126 52 175 30 59 88 118 143 144 58 28 139 27 194 -1z
m1156 0 c100 -46 176 -163 191 -291 l7 -55 -286 0 c-157 0 -288 3 -290 8 -8
14 22 131 48 183 76 154 204 214 330 155z m-2485 -2871 l0 -395 -395 0 -395 0
0 395 0 395 395 0 395 0 0 -395z m970 0 l0 -395 -390 0 -390 0 0 395 0 395
390 0 390 0 0 -395z m980 0 l0 -395 -395 0 -395 0 0 395 0 395 395 0 395 0 0
-395z m970 0 l0 -395 -395 0 -395 0 0 395 0 395 395 0 395 0 0 -395z m-3890
-970 l0 -395 -395 0 -395 0 0 395 0 395 395 0 395 0 0 -395z m970 0 l0 -395
-395 0 -395 0 0 388 c0 214 3 392 7 395 3 4 181 7 395 7 l388 0 0 -395z m970
0 l0 -395 -390 0 -390 0 0 395 0 395 390 0 390 0 0 -395z m978 -2 l2 -393
-395 0 -395 0 0 395 0 395 393 -2 392 -3 3 -392z m972 2 l0 -395 -395 0 -395
0 0 395 0 395 395 0 395 0 0 -395z m-3890 -975 l0 -390 -395 0 -395 0 0 390 0
390 395 0 395 0 0 -390z m970 0 l0 -390 -395 0 -395 0 0 390 0 390 395 0 395
0 0 -390z m970 0 l0 -390 -390 0 -390 0 0 390 0 390 390 0 390 0 0 -390z m980
0 l0 -390 -395 0 -395 0 0 390 0 390 395 0 395 0 0 -390z m970 0 l0 -390 -395
0 -395 0 0 390 0 390 395 0 395 0 0 -390z m-3890 -975 l0 -395 -395 0 -395 0
0 395 0 395 395 0 395 0 0 -395z m970 0 l0 -395 -392 2 -393 3 -3 393 -2 392
395 0 395 0 0 -395z m970 0 l0 -395 -390 0 -390 0 0 395 0 395 390 0 390 0 0
-395z"/>
</g>
</svg>
